<svg width="1475" height="700" viewBox="0 0 1475 700" fill="none" xmlns="http://www.w3.org/2000/svg">
<path d="M0 4C0 1.79086 1.79086 0 4 0H1471C1473.21 0 1475 1.79086 1475 4V504.358C1475 505.94 1474.07 507.374 1472.62 508.015L1158.27 647.342C1157.92 647.498 1157.55 647.602 1157.17 647.652L754.146 699.915C753.712 699.971 753.272 699.956 752.843 699.87L294.677 607.672L2.70638 507.885C1.08773 507.332 0 505.811 0 504.1V4Z" fill="url(#paint0_linear_83_2)"/>
<path d="M0 4C0 1.79086 1.79086 0 4 0H1471C1473.21 0 1475 1.79086 1475 4V504.358C1475 505.94 1474.07 507.374 1472.62 508.015L1158.27 647.342C1157.92 647.498 1157.55 647.602 1157.17 647.652L754.146 699.915C753.712 699.971 753.272 699.956 752.843 699.87L294.677 607.672L2.70638 507.885C1.08773 507.332 0 505.811 0 504.1V4Z" fill="url(#paint1_linear_83_2)"/>
<defs>
<linearGradient id="paint0_linear_83_2" x1="737.5" y1="0" x2="737.5" y2="700" gradientUnits="userSpaceOnUse">
<stop stop-color="white" stop-opacity="0"/>
<stop offset="0.541667" stop-color="#445BDF"/>
</linearGradient>
<linearGradient id="paint1_linear_83_2" x1="737.5" y1="0" x2="737.5" y2="700" gradientUnits="userSpaceOnUse">
<stop stop-color="#FCFCFC" stop-opacity="0.15"/>
<stop offset="0.786458" stop-color="#7284EA"/>
</linearGradient>
</defs>
</svg>
